/* XPM */
static char *result[] = {
/* columns rows colors chars-per-pixel */
"32 32 3 1 ",
"  c black",
". c #9BADB7",
"X c white",
/* pixels */
"                                ",
" .............................. ",
" ....................XXXXXXX... ",
" .....................XXXXXXX.. ",
" .........................XXXX. ",
" ..........................XXX. ",
" ...........................XX. ",
" ...........................XX. ",
" ...........................XX. ",
" ...........................XX. ",
" ............................X. ",
" .............................. ",
" .............................. ",
" .............................. ",
" .............................. ",
" .............................. ",
" .............................. ",
" .............................. ",
" .............................. ",
" .............................. ",
" .............................. ",
" .............................. ",
" .............................. ",
" .............................. ",
" .............................. ",
" .............................. ",
" .............................. ",
" .............................. ",
" .............................. ",
" .............................. ",
" .............................. ",
"                                "
};
