/* XPM */
static char *result[] = {
/* columns rows colors chars-per-pixel */
"32 32 3 1 ",
"  c #40012F",
". c #AB8267",
"X c #D9A682",
/* pixels */
"                                ",
" .XXXXXXXXXXXXXXXXXXXXXXXXXXXXX ",
" .XXXXXXXXXXXXXXXXXXXXXXXXXXXXX ",
" .XXXXXXXXXXXXXXXXXXXXXXXXXXXXX ",
" .XXX.......................XXX ",
" .XXX                      .XXX ",
" .XXX .................... .XXX ",
" .XXX .................... .XXX ",
" .XXX .................... .XXX ",
" .XXX .................... .XXX ",
" .XXX                      .XXX ",
" .XXX .................... .XXX ",
" .XXX .................... .XXX ",
" .XXX .................... .XXX ",
" .XXX .................... .XXX ",
" .XXX                      .XXX ",
" .XXX                      .XXX ",
" .XXX .................... .XXX ",
" .XXX .................... .XXX ",
" .XXX .................... .XXX ",
" .XXX .................... .XXX ",
" .XXX                      .XXX ",
" .XXX .................... .XXX ",
" .XXX .................... .XXX ",
" .XXX .................... .XXX ",
" .XXX .................... .XXX ",
" .XXX                      .XXX ",
" .XXXXXXXXXXXXXXXXXXXXXXXXXXXXX ",
" .XXXXXXXXXXXXXXXXXXXXXXXXXXXXX ",
" .XXXXXXXXXXXXXXXXXXXXXXXXXXXXX ",
" .............................. ",
"                                "
};
