/* XPM */
static char *_e92afb0f3c24ceec9961f762f67df47xMeD35yv0g4gRn4R[] = {
/* columns rows colors chars-per-pixel */
"32 32 4 1 ",
"  c black",
". c #04B431",
"X c #2EFE64",
"o c #A9F5A9",
/* pixels */
"oooooooooooooooooooooooooooooooo",
"oooooooooooooooooooooooooooooooo",
"oooooooooooooooooooooooooooooooo",
"oooooooooooooooooooooooooooooooo",
"....XXXXXXXXXXXXXXXXXXXXXXXX....",
"....XXXXXXXXXXXXXXXXXXXXXXXX....",
"....XXXXXXXXXXXXXXXXXXXXXXXX....",
"....XXXXXXXXXXXXXXXXXXXXXXXX....",
"....XXXXXXXXXXXXXXXXXXXXXXXX....",
"....XXXXXXXXXXXXXXXXXXXXXXXX....",
"....XXXXXXXXXXXXXXXXXXXXXXXX....",
"....XXXXXXXXXXXXXXXXXXXXXXXX....",
"....XXXXXXXXXXXXXXXXXXXXXXXX....",
"....XXXXXXXXXXXXXXXXXXXXXXXX....",
"....XXXXXXXXXXXXXXXXXXXXXXXX....",
"....XXXXXXXXXXXXXXXXXXXXXXXX....",
"....XXXXXXXXXXXXXXXXXXXXXXXX....",
"....XXXXXXXXXXXXXXXXXXXXXXXX....",
"....XXXXXXXXXXXXXXXXXXXXXXXX....",
"....XXXXXXXXXXXXXXXXXXXXXXXX....",
"....XXXXXXXXXXXXXXXXXXXXXXXX....",
"....XXXXXXXXXXXXXXXXXXXXXXXX....",
"....XXXXXXXXXXXXXXXXXXXXXXXX....",
"....XXXXXXXXXXXXXXXXXXXXXXXX....",
"....XXXXXXXXXXXXXXXXXXXXXXXX....",
"....XXXXXXXXXXXXXXXXXXXXXXXX....",
"....XXXXXXXXXXXXXXXXXXXXXXXX....",
"....XXXXXXXXXXXXXXXXXXXXXXXX....",
"                                ",
"                                ",
"                                ",
"                                "
};