/* XPM */
static char *ff20f59913364d73bc3e2b5af08ae194yXgeSFmQHHhuK1BB[] = {
/* columns rows colors chars-per-pixel */
"32 32 4 1 ",
"  c black",
". c #881400",
"X c #A81000",
"o c #FCE0A8",
/* pixels */
"oooooooooooooooooooooooooooooooo",
"oooooooooooooooooooooooooooooooo",
"oooooooooooooooooooooooooooooooo",
"oooooooooooooooooooooooooooooooo",
"....XXXXXXXXXXXXXXXXXXXXXXXX....",
"....XXXXXXXXXXXXXXXXXXXXXXXX....",
"....XXXXXXXXXXXXXXXXXXXXXXXX....",
"....XXXXXXXXXXXXXXXXXXXXXXXX....",
"....XXXXXXXXXXXXXXXXXXXXXXXX....",
"....XXXXXXXXXXXXXXXXXXXXXXXX....",
"....XXXXXXXXXXXXXXXXXXXXXXXX....",
"....XXXXXXXXXXXXXXXXXXXXXXXX....",
"....XXXXXXXXXXXXXXXXXXXXXXXX....",
"....XXXXXXXXXXXXXXXXXXXXXXXX....",
"....XXXXXXXXXXXXXXXXXXXXXXXX....",
"....XXXXXXXXXXXXXXXXXXXXXXXX....",
"....XXXXXXXXXXXXXXXXXXXXXXXX....",
"....XXXXXXXXXXXXXXXXXXXXXXXX....",
"....XXXXXXXXXXXXXXXXXXXXXXXX....",
"....XXXXXXXXXXXXXXXXXXXXXXXX....",
"....XXXXXXXXXXXXXXXXXXXXXXXX....",
"....XXXXXXXXXXXXXXXXXXXXXXXX....",
"....XXXXXXXXXXXXXXXXXXXXXXXX....",
"....XXXXXXXXXXXXXXXXXXXXXXXX....",
"....XXXXXXXXXXXXXXXXXXXXXXXX....",
"....XXXXXXXXXXXXXXXXXXXXXXXX....",
"....XXXXXXXXXXXXXXXXXXXXXXXX....",
"....XXXXXXXXXXXXXXXXXXXXXXXX....",
"                                ",
"                                ",
"                                ",
"                                "
};